<svg xmlns="http://www.w3.org/2000/svg" width="40" height="40" viewBox="0 0 40 40" fill="none">
  <!-- Moon shape with gradient -->
  <path d="M28 20c0 4.4-3.6 8-8 8s-8-3.6-8-8 3.6-8 8-8c.5 0 1 0 1.5.1C19.9 13.6 19 15.7 19 18c0 4.4 3.6 8 8 8 .7 0 1.4-.1 2.1-.3-.3.1-.7.2-1.1.3z" fill="url(#moonGradient)"/>
  <!-- Star -->
  <path d="M30 12l1.5 3 3 .4-2.2 2.1.5 3-2.8-1.5-2.8 1.5.5-3-2.2-2.1 3-.4z" fill="#A855F7"/>
  <!-- Define gradient -->
  <defs>
    <linearGradient id="moonGradient" x1="20" y1="12" x2="20" y2="28" gradientUnits="userSpaceOnUse">
      <stop offset="0%" style="stop-color:#A855F7"/>
      <stop offset="100%" style="stop-color:#6B21A8"/>
    </linearGradient>
  </defs>
</svg>
